<?xml version="1.0" encoding="utf-8"?>
<!-- Generator: Adobe Illustrator 23.0.1, SVG Export Plug-In . SVG Version: 6.00 Build 0)  -->
<svg version="1.1" id="Calque_1" xmlns="http://www.w3.org/2000/svg" xmlns:xlink="http://www.w3.org/1999/xlink" x="0px" y="0px"
	 viewBox="0 0 1652 1080" style="enable-background:new 0 0 1652 1080;" xml:space="preserve">
<style type="text/css">
	.st0{fill:none;stroke:#FFFFFF;stroke-width:10;stroke-miterlimit:10;}
	.st1{fill:#FFFFFF;}
</style>
<path class="st0" d="M1197.8,694.7c54.6,69.2,74.8,182.4,20.9,216.8C1111.1,980,705.3,736.6,729,650.1
	C748.3,579.5,1073.4,537.2,1197.8,694.7z"/>
<path class="st0" d="M254.6,621.2c129.7-49.7,347.9,16.8,375,110.5C660.6,838.6,436.4,960,298.6,936.5
	c-97.4-16.6-130.5-102-135.6-115C138.6,758.7,152.5,660.3,254.6,621.2z"/>
<path class="st0" d="M903.7,125.1c-55.3-8.6-402.2,140-533.8,252.1c-210,178.8,209.6,195,298.5,149.5
	c54.2-27.7-46.8-61.9,74.3-217.5C825.1,203.3,940.6,130.8,903.7,125.1z"/>
<path class="st0" d="M1277.3,167.6c114.3,32.6,236.4,138.6,216.6,209.8c-39.1,140.1-633,160.5-668.8,45.6
	C799.1,339.7,1039.5,99.8,1277.3,167.6z"/>
<circle class="st1" cx="1250" cy="842" r="21"/>
<path class="st0" d="M1227.8,744.2"/>
</svg>
